<svg width="8" height="8" viewBox="0 0 8 8" fill="none" xmlns="http://www.w3.org/2000/svg">
<path d="M2.22222 0C2.57584 0 2.91498 0.140476 3.16503 0.390524C3.41508 0.640573 3.55556 0.979711 3.55556 1.33333V1.77778C3.55556 2.1314 3.41508 2.47054 3.16503 2.72059C2.91498 2.97064 2.57584 3.11111 2.22222 3.11111H1.33333C0.979711 3.11111 0.640573 2.97064 0.390524 2.72059C0.140476 2.47054 0 2.1314 0 1.77778V1.33333C0 0.979711 0.140476 0.640573 0.390524 0.390524C0.640573 0.140476 0.979711 0 1.33333 0H2.22222ZM2.22222 4C2.57584 4 2.91498 4.14048 3.16503 4.39052C3.41508 4.64057 3.55556 4.97971 3.55556 5.33333V6.66667C3.55556 7.02029 3.41508 7.35943 3.16503 7.60948C2.91498 7.85952 2.57584 8 2.22222 8H1.33333C0.979711 8 0.640573 7.85952 0.390524 7.60948C0.140476 7.35943 0 7.02029 0 6.66667V5.33333C0 4.97971 0.140476 4.64057 0.390524 4.39052C0.640573 4.14048 0.979711 4 1.33333 4H2.22222ZM6.66667 0C7.02029 0 7.35943 0.140476 7.60948 0.390524C7.85952 0.640573 8 0.979711 8 1.33333V6.66667C8 7.02029 7.85952 7.35943 7.60948 7.60948C7.35943 7.85952 7.02029 8 6.66667 8H5.77778C5.42416 8 5.08502 7.85952 4.83497 7.60948C4.58492 7.35943 4.44444 7.02029 4.44444 6.66667V1.33333C4.44444 0.979711 4.58492 0.640573 4.83497 0.390524C5.08502 0.140476 5.42416 0 5.77778 0H6.66667Z" fill="#030712"/>
</svg>
