<svg width="8" height="8" viewBox="0 0 8 8" fill="none" xmlns="http://www.w3.org/2000/svg">
<path fill-rule="evenodd" clip-rule="evenodd" d="M0 1.33333C0 0.979711 0.140476 0.640573 0.390524 0.390524C0.640573 0.140476 0.979711 0 1.33333 0H6.66667C7.02029 0 7.35943 0.140476 7.60948 0.390524C7.85952 0.640573 8 0.979711 8 1.33333V6.66667C8 7.02029 7.85952 7.35943 7.60948 7.60948C7.35943 7.85952 7.02029 8 6.66667 8H1.33333C0.979711 8 0.640573 7.85952 0.390524 7.60948C0.140476 7.35943 0 7.02029 0 6.66667V1.33333ZM7 5.138C6.99998 5.04977 6.96498 4.96514 6.90267 4.90267L6.236 4.236C6.20504 4.20496 6.16825 4.18033 6.12776 4.16353C6.08726 4.14672 6.04385 4.13807 6 4.13807C5.95616 4.13807 5.91274 4.14672 5.87224 4.16353C5.83175 4.18033 5.79496 4.20496 5.764 4.236L4.90267 5.09733C4.8717 5.12838 4.83492 5.153 4.79442 5.16981C4.75393 5.18661 4.71051 5.19526 4.66667 5.19526C4.62282 5.19526 4.57941 5.18661 4.53891 5.16981C4.49841 5.153 4.46163 5.12838 4.43067 5.09733L2.90267 3.56933C2.8717 3.53829 2.83492 3.51366 2.79442 3.49686C2.75393 3.48005 2.71051 3.4714 2.66667 3.4714C2.62282 3.4714 2.57941 3.48005 2.53891 3.49686C2.49841 3.51366 2.46163 3.53829 2.43067 3.56933L1.09733 4.90267C1.03502 4.96514 1.00002 5.04977 1 5.138V6.66667C1 6.75507 1.03512 6.83986 1.09763 6.90237C1.16014 6.96488 1.24493 7 1.33333 7H6.66667C6.75507 7 6.83986 6.96488 6.90237 6.90237C6.96488 6.83986 7 6.75507 7 6.66667V5.138ZM6.66667 2C6.66667 2.17681 6.59643 2.34638 6.4714 2.4714C6.34638 2.59643 6.17681 2.66667 6 2.66667C5.82319 2.66667 5.65362 2.59643 5.5286 2.4714C5.40357 2.34638 5.33333 2.17681 5.33333 2C5.33333 1.82319 5.40357 1.65362 5.5286 1.5286C5.65362 1.40357 5.82319 1.33333 6 1.33333C6.17681 1.33333 6.34638 1.40357 6.4714 1.5286C6.59643 1.65362 6.66667 1.82319 6.66667 2Z" fill="#030712"/>
</svg>
