<svg width="16" height="16" viewBox="0 0 16 16" fill="none" xmlns="http://www.w3.org/2000/svg">
<path d="M8.80533 5.64525H9.998C10.1634 5.64537 10.3261 5.6865 10.4717 5.76496C10.6173 5.84341 10.7411 5.95674 10.8321 6.0948C10.9232 6.23286 10.9785 6.39134 10.9933 6.55604C11.008 6.72075 10.9817 6.88655 10.9167 7.03859L8.27667 13.2006C8.21293 13.3481 8.10033 13.4692 7.95779 13.5435C7.81525 13.6177 7.65148 13.6406 7.49404 13.6083C7.3366 13.576 7.1951 13.4904 7.09334 13.366C6.99159 13.2416 6.93579 13.086 6.93533 12.9253V8.31192L5.96667 8.28192C5.70727 8.27327 5.4614 8.1641 5.28101 7.9775C5.10062 7.79089 4.99986 7.54146 5 7.28192V3.33325C5 3.06804 5.10536 2.81368 5.29289 2.62615C5.48043 2.43861 5.73478 2.33325 6 2.33325H7.80533C8.07055 2.33325 8.3249 2.43861 8.51244 2.62615C8.69998 2.81368 8.80533 3.06804 8.80533 3.33325V5.64525Z" fill="#F9FAFB"/>
</svg>
