<svg width="14" height="12" viewBox="0 0 14 12" fill="none" xmlns="http://www.w3.org/2000/svg">
<path d="M3.62669 1.33327C3.62651 1.68689 3.48587 2.02596 3.23569 2.27588C2.98552 2.52581 2.64631 2.66611 2.29269 2.66593C1.93907 2.66576 1.6 2.52511 1.35007 2.27494C1.10015 2.02477 0.959845 1.68556 0.960022 1.33193C0.960199 0.978312 1.10084 0.639244 1.35102 0.389321C1.60119 0.139397 1.9404 -0.000909066 2.29402 -0.000732255C2.64764 -0.000555444 2.98671 0.14009 3.23664 0.390263C3.48656 0.640437 3.62687 0.979646 3.62669 1.33327ZM3.66669 3.65327H1.00002V11.9999H3.66669V3.65327ZM7.88002 3.65327H5.22669V11.9999H7.85335V7.61993C7.85335 5.17993 11.0334 4.95327 11.0334 7.61993V11.9999H13.6667V6.71327C13.6667 2.59993 8.96002 2.75327 7.85335 4.77327L7.88002 3.65327Z" fill="#030712"/>
</svg>
