<svg width="14" height="12" viewBox="0 0 14 12" fill="none" xmlns="http://www.w3.org/2000/svg">
<path d="M6.99998 9.66667C7.83331 9.66667 8.54176 9.37511 9.12531 8.792C9.70887 8.20889 10.0004 7.50044 9.99998 6.66667C9.99998 5.83333 9.70842 5.12511 9.12531 4.542C8.5422 3.95889 7.83376 3.66711 6.99998 3.66667C6.16665 3.66667 5.45842 3.95844 4.87531 4.542C4.2922 5.12556 4.00042 5.83378 3.99998 6.66667C3.99998 7.5 4.29176 8.20844 4.87531 8.792C5.45887 9.37555 6.16709 9.66711 6.99998 9.66667ZM6.99998 8.33333C6.53331 8.33333 6.13887 8.17222 5.81665 7.85C5.49442 7.52778 5.33331 7.13333 5.33331 6.66667C5.33331 6.2 5.49442 5.80556 5.81665 5.48333C6.13887 5.16111 6.53331 5 6.99998 5C7.46665 5 7.86109 5.16111 8.18331 5.48333C8.50554 5.80556 8.66665 6.2 8.66665 6.66667C8.66665 7.13333 8.50554 7.52778 8.18331 7.85C7.86109 8.17222 7.46665 8.33333 6.99998 8.33333ZM1.66665 12C1.29998 12 0.986202 11.8696 0.725313 11.6087C0.464424 11.3478 0.333757 11.0338 0.333313 10.6667V2.66667C0.333313 2.3 0.46398 1.98622 0.725313 1.72533C0.986646 1.46444 1.30042 1.33378 1.66665 1.33333H3.76665L4.99998 0H8.99998L10.2333 1.33333H12.3333C12.7 1.33333 13.014 1.464 13.2753 1.72533C13.5366 1.98667 13.6671 2.30044 13.6666 2.66667V10.6667C13.6666 11.0333 13.5362 11.3473 13.2753 11.6087C13.0144 11.87 12.7004 12.0004 12.3333 12H1.66665Z" fill="#F3F4F6"/>
</svg>
