<svg width="16" height="16" viewBox="0 0 16 16" fill="none" xmlns="http://www.w3.org/2000/svg">
<path fill-rule="evenodd" clip-rule="evenodd" d="M0 2.66667C0 1.95942 0.280951 1.28115 0.781048 0.781048C1.28115 0.280951 1.95942 0 2.66667 0H13.3333C14.0406 0 14.7189 0.280951 15.219 0.781048C15.719 1.28115 16 1.95942 16 2.66667V13.3333C16 14.0406 15.719 14.7189 15.219 15.219C14.7189 15.719 14.0406 16 13.3333 16H2.66667C1.95942 16 1.28115 15.719 0.781048 15.219C0.280951 14.7189 0 14.0406 0 13.3333V2.66667ZM14 10.276C14 10.0995 13.93 9.93027 13.8053 9.80533L12.472 8.472C12.4101 8.40992 12.3365 8.36066 12.2555 8.32705C12.1745 8.29344 12.0877 8.27614 12 8.27614C11.9123 8.27614 11.8255 8.29344 11.7445 8.32705C11.6635 8.36066 11.5899 8.40992 11.528 8.472L9.80533 10.1947C9.74341 10.2568 9.66984 10.306 9.58884 10.3396C9.50785 10.3732 9.42102 10.3905 9.33333 10.3905C9.24564 10.3905 9.15882 10.3732 9.07782 10.3396C8.99683 10.306 8.92326 10.2568 8.86133 10.1947L5.80533 7.13867C5.74341 7.07658 5.66984 7.02733 5.58885 6.99372C5.50785 6.96011 5.42102 6.94281 5.33333 6.94281C5.24564 6.94281 5.15882 6.96011 5.07782 6.99372C4.99683 7.02733 4.92326 7.07658 4.86133 7.13867L2.19467 9.80533C2.07004 9.93027 2.00004 10.0995 2 10.276V13.3333C2 13.5101 2.07024 13.6797 2.19526 13.8047C2.32029 13.9298 2.48986 14 2.66667 14H13.3333C13.5101 14 13.6797 13.9298 13.8047 13.8047C13.9298 13.6797 14 13.5101 14 13.3333V10.276ZM13.3333 4C13.3333 4.35362 13.1929 4.69276 12.9428 4.94281C12.6928 5.19286 12.3536 5.33333 12 5.33333C11.6464 5.33333 11.3072 5.19286 11.0572 4.94281C10.8071 4.69276 10.6667 4.35362 10.6667 4C10.6667 3.64638 10.8071 3.30724 11.0572 3.05719C11.3072 2.80714 11.6464 2.66667 12 2.66667C12.3536 2.66667 12.6928 2.80714 12.9428 3.05719C13.1929 3.30724 13.3333 3.64638 13.3333 4Z" fill="#F9FAFB"/>
</svg>
