<svg width="14" height="8" viewBox="0 0 14 8" fill="none" xmlns="http://www.w3.org/2000/svg">
<path d="M0.636002 0.293031C0.82353 0.10556 1.07784 0.000244141 1.343 0.000244141C1.60817 0.000244141 1.86247 0.10556 2.05 0.293031L7 5.24303L11.95 0.293031C12.1386 0.110873 12.3912 0.0100779 12.6534 0.0123563C12.9156 0.0146347 13.1664 0.119804 13.3518 0.305212C13.5372 0.49062 13.6424 0.741432 13.6447 1.00363C13.647 1.26583 13.5462 1.51843 13.364 1.70703L7.707 7.36403C7.51947 7.5515 7.26517 7.65682 7 7.65682C6.73484 7.65682 6.48053 7.5515 6.293 7.36403L0.636002 1.70703C0.448531 1.5195 0.343216 1.26519 0.343216 1.00003C0.343216 0.734866 0.448531 0.480558 0.636002 0.293031Z" fill="black"/>
</svg>
