<svg width="10" height="10" viewBox="0 0 10 10" fill="none" xmlns="http://www.w3.org/2000/svg">
<g clip-path="url(#clip0_504_141)">
<path d="M8.6111 4.16665H5.83332V1.38888C5.83332 1.16786 5.74552 0.9559 5.58924 0.79962C5.43296 0.643339 5.221 0.555542 4.99999 0.555542C4.77897 0.555542 4.56701 0.643339 4.41073 0.79962C4.25445 0.9559 4.16665 1.16786 4.16665 1.38888V4.16665H1.38888C1.16786 4.16665 0.9559 4.25445 0.79962 4.41073C0.643339 4.56701 0.555542 4.77897 0.555542 4.99999C0.555542 5.221 0.643339 5.43296 0.79962 5.58924C0.9559 5.74552 1.16786 5.83332 1.38888 5.83332H4.16665V8.6111C4.16665 8.83211 4.25445 9.04407 4.41073 9.20035C4.56701 9.35663 4.77897 9.44443 4.99999 9.44443C5.221 9.44443 5.43296 9.35663 5.58924 9.20035C5.74552 9.04407 5.83332 8.83211 5.83332 8.6111V5.83332H8.6111C8.83211 5.83332 9.04407 5.74552 9.20035 5.58924C9.35663 5.43296 9.44443 5.221 9.44443 4.99999C9.44443 4.77897 9.35663 4.56701 9.20035 4.41073C9.04407 4.25445 8.83211 4.16665 8.6111 4.16665Z" fill="#030712"/>
</g>
<defs>
<clipPath id="clip0_504_141">
<rect width="10" height="10" fill="white"/>
</clipPath>
</defs>
</svg>
