<svg width="12" height="12" viewBox="0 0 12 12" fill="none" xmlns="http://www.w3.org/2000/svg">
<path d="M5.97 9.6C6.18 9.6 6.3576 9.5274 6.5028 9.3822C6.648 9.237 6.7204 9.0596 6.72 8.85C6.72 8.64 6.6476 8.4624 6.5028 8.3172C6.358 8.172 6.1804 8.0996 5.97 8.1C5.76 8.1 5.5826 8.1726 5.4378 8.3178C5.293 8.463 5.2204 8.6404 5.22 8.85C5.22 9.06 5.2926 9.2376 5.4378 9.3828C5.583 9.528 5.7604 9.6004 5.97 9.6ZM5.43 7.29H6.54C6.54 6.96 6.5776 6.7 6.6528 6.51C6.728 6.32 6.9404 6.06 7.29 5.73C7.55 5.47 7.755 5.2224 7.905 4.9872C8.055 4.752 8.13 4.4696 8.13 4.14C8.13 3.58 7.925 3.15 7.515 2.85C7.105 2.55 6.62 2.4 6.06 2.4C5.49 2.4 5.0276 2.55 4.6728 2.85C4.318 3.15 4.0704 3.51 3.93 3.93L4.92 4.32C4.97 4.14 5.0826 3.945 5.2578 3.735C5.433 3.525 5.7004 3.42 6.06 3.42C6.38 3.42 6.62 3.5076 6.78 3.6828C6.94 3.858 7.02 4.0504 7.02 4.26C7.02 4.46 6.96 4.6476 6.84 4.8228C6.72 4.998 6.57 5.1604 6.39 5.31C5.95 5.7 5.68 5.995 5.58 6.195C5.48 6.395 5.43 6.76 5.43 7.29ZM6 12C5.17 12 4.39 11.8426 3.66 11.5278C2.93 11.213 2.295 10.7854 1.755 10.245C1.215 9.705 0.7876 9.07 0.4728 8.34C0.158 7.61 0.0004 6.83 0 6C0 5.17 0.1576 4.39 0.4728 3.66C0.788 2.93 1.2154 2.295 1.755 1.755C2.295 1.215 2.93 0.7876 3.66 0.4728C4.39 0.158 5.17 0.0004 6 0C6.83 0 7.61 0.1576 8.34 0.4728C9.07 0.788 9.705 1.2154 10.245 1.755C10.785 2.295 11.2126 2.93 11.5278 3.66C11.843 4.39 12.0004 5.17 12 6C12 6.83 11.8424 7.61 11.5272 8.34C11.212 9.07 10.7846 9.705 10.245 10.245C9.705 10.785 9.07 11.2126 8.34 11.5278C7.61 11.843 6.83 12.0004 6 12ZM6 10.8C7.34 10.8 8.475 10.335 9.405 9.405C10.335 8.475 10.8 7.34 10.8 6C10.8 4.66 10.335 3.525 9.405 2.595C8.475 1.665 7.34 1.2 6 1.2C4.66 1.2 3.525 1.665 2.595 2.595C1.665 3.525 1.2 4.66 1.2 6C1.2 7.34 1.665 8.475 2.595 9.405C3.525 10.335 4.66 10.8 6 10.8Z" fill="#030712"/>
</svg>
