<svg width="2" height="16" viewBox="0 0 2 16" fill="none" xmlns="http://www.w3.org/2000/svg">
<path d="M1 -4.37114e-08C0.734784 -5.53044e-08 0.48043 0.105357 0.292893 0.292893C0.105357 0.48043 -3.21184e-08 0.734783 -4.37114e-08 1C-5.53044e-08 1.26522 0.105357 1.51957 0.292893 1.70711C0.48043 1.89464 0.734783 2 1 2C1.26522 2 1.51957 1.89464 1.70711 1.70711C1.89464 1.51957 2 1.26522 2 1C2 0.734784 1.89464 0.48043 1.70711 0.292893C1.51957 0.105357 1.26522 -3.21184e-08 1 -4.37114e-08ZM1 7C0.734783 7 0.480429 7.10536 0.292893 7.29289C0.105357 7.48043 -3.38098e-07 7.73478 -3.49691e-07 8C-3.61284e-07 8.26522 0.105357 8.51957 0.292893 8.70711C0.480429 8.89464 0.734783 9 1 9C1.26522 9 1.51957 8.89464 1.70711 8.70711C1.89464 8.51957 2 8.26522 2 8C2 7.73478 1.89464 7.48043 1.70711 7.29289C1.51957 7.10536 1.26522 7 1 7ZM0.999999 14C0.734783 14 0.480429 14.1054 0.292893 14.2929C0.105356 14.4804 -6.44078e-07 14.7348 -6.55671e-07 15C-6.67264e-07 15.2652 0.105356 15.5196 0.292893 15.7071C0.480429 15.8946 0.734783 16 0.999999 16C1.26522 16 1.51957 15.8946 1.70711 15.7071C1.89464 15.5196 2 15.2652 2 15C2 14.7348 1.89464 14.4804 1.70711 14.2929C1.51957 14.1054 1.26522 14 0.999999 14Z" fill="#030712"/>
</svg>
