<svg width="20" height="20" viewBox="0 0 20 20" fill="none" xmlns="http://www.w3.org/2000/svg">
<path d="M14.3793 17.5012C13.4718 18.3809 12.481 18.242 11.5272 17.8253C10.5179 17.3993 9.5919 17.3808 8.52701 17.8253C7.19358 18.3994 6.48982 18.2327 5.69346 17.5012C1.17461 12.8434 1.84133 5.75031 6.97134 5.49104C8.22143 5.55585 9.09186 6.17627 9.8234 6.23183C10.9161 6.00959 11.9624 5.37066 13.1292 5.454C14.5275 5.56511 15.5831 6.12071 16.2776 7.12078C13.3885 8.85239 14.0737 12.6582 16.7221 13.7231C16.1942 15.1121 15.509 16.4918 14.37 17.5104L14.3793 17.5012ZM9.7308 5.43548C9.5919 3.37051 11.268 1.66668 13.194 1.5C13.4626 3.88907 11.0272 5.66697 9.7308 5.43548Z" fill="#030712"/>
</svg>
