<svg width="20" height="20" viewBox="0 0 20 20" fill="none" xmlns="http://www.w3.org/2000/svg">
<path d="M15 1.34001C16.5202 2.2177 17.7826 3.48009 18.6603 5.0003C19.538 6.5205 20 8.24495 20 10.0003C20 11.7557 19.5379 13.4802 18.6602 15.0003C17.7825 16.5205 16.5201 17.7829 14.9999 18.6606C13.4797 19.5383 11.7552 20.0003 9.99984 20.0003C8.24446 20.0002 6.52002 19.5381 4.99984 18.6604C3.47965 17.7827 2.21729 16.5203 1.33963 15.0001C0.46198 13.4799 -4.45897e-05 11.7554 3.22765e-09 10L0.00500012 9.67601C0.0610032 7.949 0.563548 6.26598 1.46364 4.79101C2.36373 3.31604 3.63065 2.09947 5.14089 1.2599C6.65113 0.420327 8.35315 -0.0135887 10.081 0.000452316C11.8089 0.0144933 13.5036 0.476012 15 1.34001ZM10 4.00001C9.73478 4.00001 9.48043 4.10537 9.29289 4.29291C9.10536 4.48044 9 4.7348 9 5.00001C8.20435 5.00001 7.44129 5.31609 6.87868 5.87869C6.31607 6.4413 6 7.20437 6 8.00001C6 8.79566 6.31607 9.55873 6.87868 10.1213C7.44129 10.6839 8.20435 11 9 11V13C8.8342 13.0089 8.66874 12.9772 8.51787 12.9079C8.36701 12.8386 8.23527 12.7336 8.134 12.602L8.066 12.501C7.92918 12.2804 7.71191 12.1216 7.46014 12.0582C7.20836 11.9949 6.94182 12.0319 6.71686 12.1615C6.49191 12.2912 6.32619 12.5032 6.25474 12.7528C6.18329 13.0024 6.21171 13.27 6.334 13.499C6.58924 13.9417 6.95331 14.3118 7.3917 14.5743C7.8301 14.8368 8.32827 14.983 8.839 14.999H9C8.99979 15.2441 9.0896 15.4808 9.25238 15.664C9.41517 15.8473 9.63958 15.9643 9.883 15.993L10 16C10.2652 16 10.5196 15.8947 10.7071 15.7071C10.8946 15.5196 11 15.2652 11 15L11.176 14.995C11.9556 14.95 12.6869 14.6027 13.2145 14.027C13.7422 13.4513 14.0245 12.6925 14.0016 11.912C13.9787 11.1314 13.6523 10.3905 13.0918 9.84679C12.5313 9.30303 11.7809 8.99926 11 9.00001V7.00001C11.358 6.98801 11.671 7.14001 11.866 7.39801L11.934 7.49901C12.0708 7.71966 12.2881 7.87845 12.5399 7.9418C12.7916 8.00516 13.0582 7.9681 13.2831 7.83848C13.5081 7.70886 13.6738 7.49684 13.7453 7.24724C13.8167 6.99764 13.7883 6.73004 13.666 6.50102C13.4109 6.05816 13.0469 5.68783 12.6085 5.42514C12.1701 5.16245 11.6718 5.01612 11.161 5.00001H11C11 4.7348 10.8946 4.48044 10.7071 4.29291C10.5196 4.10537 10.2652 4.00001 10 4.00001ZM11 11C11.2652 11 11.5196 11.1054 11.7071 11.2929C11.8946 11.4804 12 11.7348 12 12C12 12.2652 11.8946 12.5196 11.7071 12.7071C11.5196 12.8947 11.2652 13 11 13V11ZM9 7.00001V9.00001C8.73478 9.00001 8.48043 8.89466 8.29289 8.70712C8.10536 8.51958 8 8.26523 8 8.00001C8 7.7348 8.10536 7.48044 8.29289 7.29291C8.48043 7.10537 8.73478 7.00001 9 7.00001Z" fill="#030712"/>
</svg>
