<svg width="21" height="20" viewBox="0 0 21 20" fill="none" xmlns="http://www.w3.org/2000/svg">
<path d="M3.05332 6.25829C3.74666 4.87766 4.8103 3.71705 6.12535 2.90618C7.4404 2.09531 8.95504 1.66614 10.5 1.66663C12.7458 1.66663 14.6325 2.49246 16.075 3.83746L13.6858 6.22746C12.8217 5.40163 11.7233 4.98079 10.5 4.98079C8.32916 4.98079 6.49166 6.44746 5.83749 8.41663C5.67082 8.91663 5.57582 9.44996 5.57582 9.99996C5.57582 10.55 5.67082 11.0833 5.83749 11.5833C6.49249 13.5533 8.32916 15.0191 10.5 15.0191C11.6208 15.0191 12.575 14.7233 13.3217 14.2233C13.7545 13.9383 14.1251 13.5685 14.411 13.1362C14.6969 12.7039 14.8922 12.2182 14.985 11.7083H10.5V8.48496H18.3483C18.4467 9.02996 18.5 9.59829 18.5 10.1891C18.5 12.7275 17.5917 14.8641 16.015 16.3141C14.6367 17.5875 12.75 18.3333 10.5 18.3333C9.40552 18.3337 8.32169 18.1185 7.31044 17.6998C6.2992 17.2812 5.38037 16.6674 4.60646 15.8935C3.83255 15.1196 3.21874 14.2008 2.8001 13.1895C2.38147 12.1783 2.16622 11.0944 2.16666 9.99996C2.16666 8.65496 2.48832 7.38329 3.05332 6.25829Z" fill="#030712"/>
</svg>
