<svg width="14" height="14" viewBox="0 0 14 14" fill="none" xmlns="http://www.w3.org/2000/svg">
<path d="M7.00065 4.99992C6.47021 4.99992 5.96151 5.21063 5.58643 5.5857C5.21136 5.96078 5.00065 6.46949 5.00065 6.99992C5.00065 7.53035 5.21136 8.03906 5.58643 8.41413C5.96151 8.7892 6.47021 8.99992 7.00065 8.99992C7.53108 8.99992 8.03979 8.7892 8.41486 8.41413C8.78993 8.03906 9.00065 7.53035 9.00065 6.99992C9.00065 6.46949 8.78993 5.96078 8.41486 5.5857C8.03979 5.21063 7.53108 4.99992 7.00065 4.99992ZM7.00065 3.66659C7.8847 3.66659 8.73255 4.01777 9.35767 4.6429C9.98279 5.26802 10.334 6.11586 10.334 6.99992C10.334 7.88397 9.98279 8.73182 9.35767 9.35694C8.73255 9.98206 7.8847 10.3333 7.00065 10.3333C6.11659 10.3333 5.26874 9.98206 4.64362 9.35694C4.0185 8.73182 3.66731 7.88397 3.66731 6.99992C3.66731 6.11586 4.0185 5.26802 4.64362 4.6429C5.26874 4.01777 6.11659 3.66659 7.00065 3.66659ZM11.334 3.49992C11.334 3.72093 11.2462 3.93289 11.0899 4.08917C10.9336 4.24545 10.7217 4.33325 10.5006 4.33325C10.2796 4.33325 10.0677 4.24545 9.91139 4.08917C9.75511 3.93289 9.66731 3.72093 9.66731 3.49992C9.66731 3.2789 9.75511 3.06694 9.91139 2.91066C10.0677 2.75438 10.2796 2.66659 10.5006 2.66659C10.7217 2.66659 10.9336 2.75438 11.0899 2.91066C11.2462 3.06694 11.334 3.2789 11.334 3.49992ZM7.00065 1.66659C5.35131 1.66659 5.08198 1.67125 4.31465 1.70525C3.79198 1.72992 3.44131 1.79992 3.11598 1.92659C2.84372 2.02654 2.59759 2.18676 2.39598 2.39525C2.18732 2.59685 2.02688 2.84297 1.92665 3.11525C1.79998 3.44192 1.72998 3.79192 1.70598 4.31392C1.67131 5.04992 1.66665 5.30725 1.66665 6.99992C1.66665 8.64992 1.67131 8.91858 1.70531 9.68592C1.72998 10.2079 1.79998 10.5593 1.92598 10.8839C2.03931 11.1739 2.17265 11.3826 2.39398 11.6039C2.61865 11.8279 2.82731 11.9619 3.11398 12.0726C3.44331 12.1999 3.79398 12.2706 4.31398 12.2946C5.04998 12.3293 5.30731 12.3333 6.99998 12.3333C8.64998 12.3333 8.91865 12.3286 9.68598 12.2946C10.2073 12.2699 10.558 12.1999 10.884 12.0739C11.156 11.9735 11.402 11.8133 11.604 11.6053C11.8286 11.3813 11.9626 11.1726 12.0733 10.8853C12.2 10.5573 12.2706 10.2066 12.2946 9.68525C12.3293 8.94992 12.3333 8.69192 12.3333 6.99992C12.3333 5.35059 12.3286 5.08125 12.2946 4.31392C12.27 3.79259 12.1993 3.44059 12.0733 3.11525C11.9728 2.84326 11.8127 2.59724 11.6046 2.39525C11.4031 2.18648 11.157 2.02603 10.8846 1.92592C10.558 1.79925 10.2073 1.72925 9.68598 1.70525C8.95065 1.67059 8.69331 1.66659 6.99998 1.66659M6.99998 0.333252C8.81131 0.333252 9.03731 0.339919 9.74865 0.373252C10.458 0.406585 10.942 0.517919 11.3666 0.683252C11.8066 0.852585 12.1773 1.08192 12.548 1.45192C12.887 1.78518 13.1493 2.18831 13.3166 2.63325C13.4813 3.05792 13.5933 3.54192 13.6266 4.25192C13.658 4.96258 13.6666 5.18858 13.6666 6.99992C13.6666 8.81125 13.66 9.03725 13.6266 9.74792C13.5933 10.4579 13.4813 10.9413 13.3166 11.3666C13.1497 11.8118 12.8874 12.215 12.548 12.5479C12.2146 12.8868 11.8115 13.1491 11.3666 13.3166C10.942 13.4813 10.458 13.5933 9.74865 13.6266C9.03731 13.6579 8.81131 13.6666 6.99998 13.6666C5.18865 13.6666 4.96265 13.6599 4.25131 13.6266C3.54198 13.5933 3.05865 13.4813 2.63331 13.3166C2.1882 13.1496 1.785 12.8872 1.45198 12.5479C1.11293 12.2147 0.85062 11.8116 0.683313 11.3666C0.51798 10.9419 0.406646 10.4579 0.373313 9.74792C0.341313 9.03725 0.333313 8.81125 0.333313 6.99992C0.333313 5.18858 0.33998 4.96258 0.373313 4.25192C0.406646 3.54192 0.51798 3.05859 0.683313 2.63325C0.850137 2.18804 1.11252 1.7848 1.45198 1.45192C1.78509 1.11274 2.18827 0.850405 2.63331 0.683252C3.05798 0.517919 3.54131 0.406585 4.25131 0.373252C4.96331 0.341919 5.18931 0.333252 7.00065 0.333252" fill="#030712"/>
</svg>
