<svg width="9" height="8" viewBox="0 0 9 8" fill="none" xmlns="http://www.w3.org/2000/svg">
<path d="M5.18783 6.55013C5.02331 6.85504 4.87414 7.13363 4.72279 7.41221C4.61969 7.60086 4.41568 7.71054 4.23362 7.66886C4.04497 7.62499 3.90677 7.5175 3.86509 7.31569C3.59748 6.0829 3.33644 4.84791 3.06224 3.61512C3.00521 3.35408 3.27721 3.03601 3.57774 3.09524C4.07568 3.19176 4.57362 3.29924 5.07157 3.40015C5.80642 3.5515 6.54346 3.70506 7.27831 3.85641C7.56348 3.91564 7.72141 4.1328 7.66657 4.40262C7.63586 4.55397 7.53715 4.65268 7.40992 4.72507C7.16424 4.86327 6.91856 4.99927 6.67288 5.13747C6.65095 5.15063 6.62682 5.16379 6.59611 5.18134C6.67069 5.25153 6.74088 5.31515 6.81108 5.38095C7.17741 5.71877 7.54154 6.05658 7.90787 6.39658C8.11407 6.58742 8.12065 6.88137 7.92322 7.08098C7.66658 7.33982 7.40993 7.59647 7.15108 7.85312C6.95147 8.05055 6.67069 8.04835 6.47107 7.84874C6.06526 7.44512 5.66164 7.0393 5.25802 6.63568C5.23389 6.61375 5.21634 6.58742 5.18783 6.55013Z" fill="#030712"/>
<path d="M5.72306 0.862171C5.87661 0.881914 5.99287 0.94114 6.05429 1.07714C6.1179 1.21973 6.10036 1.35792 5.99506 1.47418C5.87222 1.61018 5.7428 1.7396 5.61777 1.87341C5.51467 1.98309 5.41157 2.09058 5.30628 2.20026C5.16589 2.34723 4.96627 2.36039 4.8215 2.23535C4.65478 2.09058 4.61969 1.85806 4.76008 1.71109C5.00137 1.45444 5.25363 1.20656 5.50809 0.963076C5.56073 0.91043 5.65067 0.892882 5.72306 0.862171Z" fill="#030712"/>
<path d="M0.943241 5.70122C0.943241 5.6025 0.976145 5.51915 1.04634 5.44895C1.27886 5.21424 1.51138 4.97953 1.74829 4.74701C1.89087 4.60662 2.11681 4.61101 2.25939 4.75139C2.38662 4.87643 2.39101 5.10456 2.25939 5.24276C2.02248 5.48625 1.78338 5.72754 1.5399 5.96225C1.42802 6.07193 1.28544 6.08729 1.14286 6.02367C1.00685 5.96225 0.945435 5.84819 0.943241 5.70122Z" fill="#030712"/>
<path d="M0.894982 1.25702C0.910337 1.11443 1.00905 0.967463 1.14286 0.91043C1.27008 0.855591 1.39073 0.890688 1.50699 1.00037C1.74609 1.23289 1.99177 1.45883 2.22649 1.69354C2.28133 1.74838 2.3252 1.82735 2.34275 1.90193C2.37565 2.04671 2.30326 2.15639 2.14532 2.24413C2.0159 2.31432 1.84261 2.30555 1.73951 2.20464C1.48286 1.95896 1.23279 1.70889 0.987113 1.45225C0.938854 1.40179 0.923499 1.32282 0.894982 1.25702Z" fill="#030712"/>
<path d="M3.16315 0.842429C3.16315 0.67791 3.16095 0.513392 3.16315 0.348873C3.16534 0.15145 3.30573 0.00448016 3.49219 9.29892e-05C3.68083 -0.00429418 3.83219 0.147063 3.83438 0.346679C3.83658 0.67791 3.83658 1.00914 3.83438 1.34037C3.83219 1.53999 3.67864 1.68915 3.48999 1.68477C3.30354 1.68038 3.16315 1.53121 3.16315 1.33599C3.16315 1.17147 3.16315 1.00695 3.16315 0.842429Z" fill="#030712"/>
<path d="M0.833562 3.13253C0.998081 3.13253 1.16041 3.13034 1.32492 3.13253C1.51577 3.13472 1.68028 3.29047 1.68248 3.46815C1.68467 3.6546 1.53331 3.80377 1.3337 3.80596C1.00685 3.80815 0.677817 3.81035 0.350973 3.80596C0.149164 3.80377 0 3.6568 0 3.46815C0 3.27731 0.151357 3.13472 0.357554 3.13253C0.517686 3.13034 0.675624 3.13253 0.833562 3.13253Z" fill="#030712"/>
</svg>
