<svg width="81" height="16" viewBox="0 0 81 16" fill="none" xmlns="http://www.w3.org/2000/svg">
<g clip-path="url(#clip0_610_229)">
<path d="M2.82353 0.873962V15.7983H0V0.873962H2.82353Z" fill="#F9FAFB"/>
<path d="M6.78991 2.82353C6.45377 2.52101 6.28571 2.11765 6.28571 1.64706C6.28571 1.17647 6.45377 0.773109 6.78991 0.470588C7.12604 0.168067 7.5294 0 8.0336 0C8.53781 0 8.94117 0.168067 9.2773 0.470588C9.61344 0.773109 9.7815 1.17647 9.7815 1.64706C9.7815 2.11765 9.61344 2.52101 9.2773 2.82353C8.94117 3.12605 8.53781 3.29412 8.0336 3.29412C7.56302 3.29412 7.12604 3.15966 6.78991 2.82353ZM9.44537 4.63866V15.7983H6.62184V4.63866H9.44537Z" fill="#F9FAFB"/>
<path d="M22.6555 5.74789C23.4622 6.58823 23.8992 7.7647 23.8992 9.2773V15.7983H21.0756V9.64705C21.0756 8.7731 20.8404 8.06722 20.4034 7.59663C19.9664 7.12604 19.3614 6.89075 18.5883 6.89075C17.8151 6.89075 17.1765 7.12604 16.7395 7.59663C16.3025 8.06722 16.0672 8.7731 16.0672 9.64705V15.7983H13.2437V4.63865H16.0672V6.0168C16.437 5.54621 16.9076 5.14285 17.5126 4.87394C18.084 4.60503 18.7227 4.47058 19.4286 4.47058C20.7395 4.47058 21.8151 4.90756 22.6555 5.74789Z" fill="#F9FAFB"/>
<path d="M34.2857 15.7983L30.4874 11.0588V15.7983H27.6639V0.873962H30.4874V9.37816L34.2521 4.63867H37.916L33.0084 10.2521L37.9496 15.7983H34.2857Z" fill="#F9FAFB"/>
<path d="M44.7395 6.95795V12.3697C44.7395 12.7395 44.8404 13.0084 45.0084 13.1764C45.1765 13.3445 45.479 13.4454 45.916 13.4454H47.2269V15.7983H45.4454C43.0588 15.7983 41.8824 14.6554 41.8824 12.3361V6.95795H40.5378V4.63863H41.8824V1.88232H44.7395V4.63863H47.2269V6.95795H44.7395Z" fill="#F9FAFB"/>
<path d="M66.7899 4.63867L63.5294 15.7983H60.4706L58.4202 8.00002L56.4034 15.7983H53.3445L50.0504 4.63867H52.9076L54.8908 13.1429L57.042 4.63867H60.0336L62.1176 13.1429L64.1008 4.63867H66.7899Z" fill="#F9FAFB"/>
<path d="M71.395 15.2941C70.521 14.8235 69.8488 14.1513 69.3782 13.2773C68.874 12.4034 68.6387 11.395 68.6387 10.2521C68.6387 9.10925 68.9076 8.10085 69.4118 7.2269C69.916 6.35295 70.5883 5.68068 71.4622 5.21009C72.3362 4.73951 73.3109 4.50421 74.3866 4.50421C75.4622 4.50421 76.437 4.73951 77.3109 5.21009C78.1849 5.68068 78.8908 6.35295 79.395 7.2269C79.8992 8.10085 80.1681 9.10925 80.1681 10.2521C80.1681 11.395 79.8992 12.4034 79.395 13.2773C78.8908 14.1513 78.1849 14.8235 77.3109 15.2941C76.437 15.7647 75.4622 16 74.353 16C73.2101 16 72.2689 15.7647 71.395 15.2941ZM75.7311 13.1429C76.1681 12.9076 76.5378 12.5378 76.8067 12.0336C77.0756 11.5294 77.2101 10.9244 77.2101 10.2185C77.2101 9.14287 76.9412 8.33614 76.3698 7.76472C75.7983 7.19329 75.1261 6.92438 74.3193 6.92438C73.5126 6.92438 72.8404 7.2269 72.3025 7.76472C71.7647 8.33614 71.4958 9.14287 71.4958 10.2185C71.4958 11.2941 71.7647 12.1009 72.3025 12.6723C72.8404 13.2437 73.5126 13.5462 74.3193 13.5462C74.8235 13.5462 75.2941 13.4118 75.7311 13.1429Z" fill="#F9FAFB"/>
</g>
<defs>
<clipPath id="clip0_610_229">
<rect width="80.1345" height="16" fill="white"/>
</clipPath>
</defs>
</svg>
