<svg width="24" height="18" viewBox="0 0 24 18" fill="none" xmlns="http://www.w3.org/2000/svg">
<path d="M22.2857 0H13.7143C13.2596 0 12.8236 0.180612 12.5021 0.502103C12.1806 0.823594 12 1.25963 12 1.71429C12 2.16894 12.1806 2.60498 12.5021 2.92647C12.8236 3.24796 13.2596 3.42857 13.7143 3.42857H22.2857C22.7404 3.42857 23.1764 3.24796 23.4979 2.92647C23.8194 2.60498 24 2.16894 24 1.71429C24 1.25963 23.8194 0.823594 23.4979 0.502103C23.1764 0.180612 22.7404 0 22.2857 0ZM10.2857 13.7143H1.71429C1.25963 13.7143 0.823594 13.8949 0.502103 14.2164C0.180612 14.5379 -2.38419e-07 14.9739 -2.38419e-07 15.4286C-2.38419e-07 15.8832 0.180612 16.3193 0.502103 16.6408C0.823594 16.9622 1.25963 17.1429 1.71429 17.1429H10.2857C10.7404 17.1429 11.1764 16.9622 11.4979 16.6408C11.8194 16.3193 12 15.8832 12 15.4286C12 14.9739 11.8194 14.5379 11.4979 14.2164C11.1764 13.8949 10.7404 13.7143 10.2857 13.7143ZM22.2857 6.85714H1.71429C1.25963 6.85714 0.823594 7.03776 0.502103 7.35925C0.180612 7.68074 -2.38419e-07 8.11677 -2.38419e-07 8.57143C-2.38419e-07 9.02609 0.180612 9.46212 0.502103 9.78361C0.823594 10.1051 1.25963 10.2857 1.71429 10.2857H22.2857C22.7404 10.2857 23.1764 10.1051 23.4979 9.78361C23.8194 9.46212 24 9.02609 24 8.57143C24 8.11677 23.8194 7.68074 23.4979 7.35925C23.1764 7.03776 22.7404 6.85714 22.2857 6.85714Z" fill="#030712"/>
</svg>
